<svg width="526" height="538" viewBox="0 0 526 538" fill="none" xmlns="http://www.w3.org/2000/svg">
<path d="M525.129 269.975C525.129 414.233 407.255 538 263.052 538C118.848 538 0 428.853 0 284.594C0 140.336 172.433 0 316.636 0C460.84 0 525.129 125.716 525.129 269.975Z" fill="#F1EBFF"/>
<circle cx="293.454" cy="269" r="211.889" stroke="url(#paint0_linear)" stroke-width="39.5717"/>
<circle cx="293.455" cy="269" r="142.217" stroke="url(#paint1_linear)" stroke-width="37.3362"/>
<g filter="url(#filter0_d)">
<rect x="47" y="136" width="454" height="268" rx="45" fill="url(#paint2_linear)"/>
</g>
<rect x="83" y="327" width="382" height="24" rx="12" fill="#D5C4FF"/>
<rect x="83" y="327" width="270" height="24" rx="12" fill="url(#paint3_linear)"/>
<g filter="url(#filter1_d)">
<path d="M330 338C330 327.507 338.507 319 349 319H351C361.493 319 370 327.507 370 338V340C370 350.493 361.493 359 351 359H349C338.507 359 330 350.493 330 340V338Z" fill="white"/>
</g>
<path d="M337 338.35C337 331.529 342.529 326 349.35 326H350.65C357.471 326 363 331.529 363 338.35V339.65C363 346.471 357.471 352 350.65 352H349.35C342.529 352 337 346.471 337 339.65V338.35Z" fill="url(#paint4_linear)"/>
<path opacity="0.6" d="M87.4197 312.139C86.7071 312.139 86.0774 312.017 85.5305 311.771C84.987 311.523 84.5611 311.185 84.2528 310.757C83.9446 310.326 83.7921 309.836 83.7955 309.286C83.7921 308.858 83.88 308.464 84.0589 308.102C84.2412 307.738 84.4882 307.433 84.7997 307.188C85.1113 306.942 85.4593 306.786 85.8438 306.72V306.661C85.34 306.541 84.9339 306.271 84.6257 305.85C84.3208 305.426 84.17 304.94 84.1733 304.393C84.17 303.873 84.3075 303.409 84.5859 303.001C84.8677 302.594 85.2538 302.272 85.7443 302.037C86.2348 301.798 86.7933 301.679 87.4197 301.679C88.0429 301.679 88.598 301.798 89.0852 302.037C89.5724 302.272 89.9569 302.594 90.2386 303.001C90.5204 303.409 90.6629 303.873 90.6662 304.393C90.6629 304.944 90.5071 305.429 90.1989 305.85C89.8906 306.271 89.4896 306.541 88.9957 306.661V306.72C89.3769 306.786 89.7216 306.942 90.0298 307.188C90.3381 307.433 90.5833 307.738 90.7656 308.102C90.9479 308.464 91.0407 308.858 91.044 309.286C91.0407 309.836 90.8833 310.326 90.5717 310.757C90.2635 311.185 89.8376 311.523 89.294 311.771C88.7505 312.017 88.1257 312.139 87.4197 312.139ZM87.4197 310.881C88.0495 310.881 88.55 310.727 88.9212 310.419C89.2957 310.107 89.4846 309.696 89.4879 309.186C89.4846 308.656 89.2874 308.222 88.8963 307.884C88.5052 307.542 88.013 307.371 87.4197 307.371C86.8198 307.371 86.3243 307.542 85.9332 307.884C85.5421 308.222 85.3482 308.656 85.3516 309.186C85.3482 309.696 85.5322 310.107 85.9034 310.419C86.2779 310.727 86.7834 310.881 87.4197 310.881ZM87.4197 306.143C87.9268 306.143 88.3445 305.994 88.6726 305.696C89.0007 305.398 89.1664 305.007 89.1697 304.523C89.1664 304.045 89.0024 303.663 88.6776 303.374C88.3561 303.083 87.9368 302.937 87.4197 302.937C86.8928 302.937 86.4685 303.083 86.147 303.374C85.8255 303.663 85.6664 304.045 85.6697 304.523C85.6664 305.007 85.8288 305.398 86.157 305.696C86.4851 305.994 86.906 306.143 87.4197 306.143ZM96.4049 312.169C95.2282 312.166 94.3118 311.705 93.6556 310.787C92.9993 309.869 92.6712 308.578 92.6712 306.914C92.6745 305.257 93.0059 303.971 93.6655 303.056C94.3251 302.138 95.2382 301.679 96.4049 301.679C97.5715 301.679 98.4846 302.138 99.1442 303.056C99.8038 303.971 100.134 305.257 100.134 306.914C100.134 308.581 99.8054 309.874 99.1492 310.792C98.4962 311.71 97.5815 312.169 96.4049 312.169ZM96.4049 310.842C97.0909 310.842 97.6295 310.505 98.0206 309.832C98.4117 309.16 98.6073 308.187 98.6073 306.914C98.6073 305.645 98.4101 304.672 98.0156 303.996C97.6245 303.32 97.0876 302.982 96.4049 302.982C95.7188 302.982 95.1802 303.32 94.7891 303.996C94.398 304.672 94.2008 305.645 94.1975 306.914C94.1975 308.187 94.393 309.16 94.7841 309.832C95.1752 310.505 95.7155 310.842 96.4049 310.842ZM112.702 305.035C112.51 304.432 112.188 303.956 111.738 303.608C111.29 303.257 110.728 303.081 110.052 303.081C109.479 303.081 108.962 303.228 108.501 303.523C108.04 303.818 107.676 304.251 107.407 304.821C107.142 305.388 107.01 306.082 107.01 306.904C107.01 307.729 107.144 308.427 107.412 308.997C107.681 309.567 108.049 310 108.516 310.295C108.983 310.59 109.515 310.737 110.112 310.737C110.927 310.737 111.585 310.497 112.086 310.016C112.586 309.532 112.845 308.879 112.861 308.058H110.346V306.79H114.348V307.948C114.348 308.803 114.165 309.546 113.801 310.175C113.44 310.802 112.941 311.286 112.304 311.627C111.668 311.969 110.937 312.139 110.112 312.139C109.194 312.139 108.387 311.929 107.691 311.508C106.995 311.084 106.453 310.48 106.065 309.698C105.677 308.916 105.483 307.988 105.483 306.914C105.483 305.83 105.681 304.897 106.075 304.115C106.469 303.333 107.01 302.731 107.696 302.31C108.382 301.889 109.164 301.679 110.042 301.679C110.775 301.679 111.439 301.821 112.036 302.107C112.633 302.388 113.126 302.781 113.517 303.285C113.912 303.789 114.165 304.372 114.278 305.035H112.702ZM116.333 312V301.818H120.062C120.784 301.818 121.382 301.937 121.856 302.176C122.334 302.411 122.688 302.731 122.92 303.136C123.156 303.537 123.273 303.989 123.273 304.493C123.273 305.129 123.104 305.616 122.766 305.955C122.428 306.293 122.025 306.521 121.558 306.641V306.74C121.896 306.757 122.226 306.866 122.547 307.068C122.872 307.267 123.141 307.55 123.353 307.918C123.565 308.286 123.671 308.734 123.671 309.261C123.671 309.781 123.548 310.248 123.303 310.663C123.061 311.074 122.687 311.4 122.179 311.642C121.672 311.881 121.024 312 120.236 312H116.333ZM117.869 310.683H120.086C120.825 310.683 121.352 310.54 121.667 310.255C121.986 309.97 122.145 309.614 122.145 309.186C122.145 308.702 121.964 308.288 121.603 307.943C121.245 307.595 120.758 307.421 120.141 307.421H117.869V310.683ZM117.869 306.223H119.927C120.444 306.223 120.88 306.077 121.235 305.786C121.589 305.494 121.767 305.103 121.767 304.612C121.767 304.188 121.619 303.835 121.324 303.553C121.029 303.268 120.577 303.126 119.967 303.126H117.869V306.223ZM138.113 306.909C138.113 307.993 137.914 308.926 137.516 309.708C137.118 310.49 136.573 311.092 135.88 311.513C135.191 311.93 134.407 312.139 133.529 312.139C132.647 312.139 131.86 311.93 131.167 311.513C130.478 311.092 129.934 310.49 129.537 309.708C129.139 308.926 128.94 307.993 128.94 306.909C128.94 305.822 129.139 304.889 129.537 304.11C129.934 303.328 130.478 302.728 131.167 302.31C131.86 301.889 132.647 301.679 133.529 301.679C134.407 301.679 135.191 301.889 135.88 302.31C136.573 302.728 137.118 303.328 137.516 304.11C137.914 304.889 138.113 305.822 138.113 306.909ZM136.591 306.909C136.591 306.08 136.457 305.383 136.189 304.816C135.923 304.246 135.559 303.815 135.095 303.523C134.634 303.228 134.112 303.081 133.529 303.081C132.945 303.081 132.422 303.228 131.958 303.523C131.497 303.815 131.132 304.246 130.864 304.816C130.599 305.383 130.466 306.08 130.466 306.909C130.466 307.734 130.599 308.432 130.864 309.002C131.132 309.572 131.497 310.005 131.958 310.3C132.422 310.591 132.945 310.737 133.529 310.737C134.112 310.737 134.634 310.591 135.095 310.3C135.559 310.005 135.923 309.572 136.189 309.002C136.457 308.432 136.591 307.734 136.591 306.909ZM143.603 304.364V305.557H141.957V312H140.466V305.557H139.287V304.364H140.466V303.479C140.466 303.001 140.57 302.605 140.779 302.29C140.991 301.972 141.269 301.735 141.614 301.58C141.959 301.42 142.332 301.341 142.733 301.341C143.034 301.341 143.291 301.366 143.503 301.415C143.715 301.462 143.873 301.505 143.975 301.545L143.627 302.748C143.558 302.725 143.468 302.7 143.359 302.673C143.25 302.647 143.117 302.634 142.961 302.634C142.6 302.634 142.341 302.723 142.186 302.902C142.033 303.081 141.957 303.339 141.957 303.678V304.364H143.603ZM152.474 301.818V312H150.932V303.891H150.848C150.765 304.04 150.535 304.205 150.157 304.384C149.779 304.559 149.302 304.647 148.725 304.647V303.384C149.096 303.384 149.423 303.318 149.704 303.185C149.989 303.053 150.228 302.894 150.42 302.708C150.613 302.519 150.76 302.342 150.863 302.176C150.969 302.007 151.028 301.888 151.042 301.818H152.474ZM158.804 312.169C157.627 312.166 156.711 311.705 156.055 310.787C155.398 309.869 155.07 308.578 155.07 306.914C155.073 305.257 155.405 303.971 156.064 303.056C156.724 302.138 157.637 301.679 158.804 301.679C159.971 301.679 160.884 302.138 161.543 303.056C162.203 303.971 162.533 305.257 162.533 306.914C162.533 308.581 162.204 309.874 161.548 310.792C160.895 311.71 159.98 312.169 158.804 312.169ZM158.804 310.842C159.49 310.842 160.029 310.505 160.42 309.832C160.811 309.16 161.006 308.187 161.006 306.914C161.006 305.645 160.809 304.672 160.415 303.996C160.024 303.32 159.487 302.982 158.804 302.982C158.118 302.982 157.579 303.32 157.188 303.996C156.797 304.672 156.6 305.645 156.596 306.914C156.596 308.187 156.792 309.16 157.183 309.832C157.574 310.505 158.114 310.842 158.804 310.842ZM167.876 312.169C166.699 312.166 165.783 311.705 165.127 310.787C164.47 309.869 164.142 308.578 164.142 306.914C164.146 305.257 164.477 303.971 165.137 303.056C165.796 302.138 166.709 301.679 167.876 301.679C169.043 301.679 169.956 302.138 170.615 303.056C171.275 303.971 171.605 305.257 171.605 306.914C171.605 308.581 171.277 309.874 170.62 310.792C169.967 311.71 169.053 312.169 167.876 312.169ZM167.876 310.842C168.562 310.842 169.101 310.505 169.492 309.832C169.883 309.16 170.078 308.187 170.078 306.914C170.078 305.645 169.881 304.672 169.487 303.996C169.096 303.32 168.559 302.982 167.876 302.982C167.19 302.982 166.651 303.32 166.26 303.996C165.869 304.672 165.672 305.645 165.669 306.914C165.669 308.187 165.864 309.16 166.255 309.832C166.646 310.505 167.187 310.842 167.876 310.842ZM184.173 305.035C183.981 304.432 183.659 303.956 183.209 303.608C182.761 303.257 182.199 303.081 181.523 303.081C180.95 303.081 180.433 303.228 179.972 303.523C179.512 303.818 179.147 304.251 178.878 304.821C178.613 305.388 178.481 306.082 178.481 306.904C178.481 307.729 178.615 308.427 178.883 308.997C179.152 309.567 179.52 310 179.987 310.295C180.454 310.59 180.986 310.737 181.583 310.737C182.398 310.737 183.056 310.497 183.557 310.016C184.057 309.532 184.316 308.879 184.332 308.058H181.817V306.79H185.819V307.948C185.819 308.803 185.637 309.546 185.272 310.175C184.911 310.802 184.412 311.286 183.775 311.627C183.139 311.969 182.408 312.139 181.583 312.139C180.665 312.139 179.858 311.929 179.162 311.508C178.466 311.084 177.924 310.48 177.536 309.698C177.148 308.916 176.954 307.988 176.954 306.914C176.954 305.83 177.152 304.897 177.546 304.115C177.941 303.333 178.481 302.731 179.167 302.31C179.853 301.889 180.635 301.679 181.513 301.679C182.246 301.679 182.91 301.821 183.507 302.107C184.104 302.388 184.597 302.781 184.989 303.285C185.383 303.789 185.637 304.372 185.749 305.035H184.173ZM187.804 312V301.818H191.533C192.255 301.818 192.853 301.937 193.327 302.176C193.805 302.411 194.159 302.731 194.391 303.136C194.627 303.537 194.744 303.989 194.744 304.493C194.744 305.129 194.575 305.616 194.237 305.955C193.899 306.293 193.496 306.521 193.029 306.641V306.74C193.367 306.757 193.697 306.866 194.018 307.068C194.343 307.267 194.612 307.55 194.824 307.918C195.036 308.286 195.142 308.734 195.142 309.261C195.142 309.781 195.019 310.248 194.774 310.663C194.532 311.074 194.158 311.4 193.651 311.642C193.143 311.881 192.495 312 191.707 312H187.804ZM189.34 310.683H191.557C192.297 310.683 192.824 310.54 193.138 310.255C193.457 309.97 193.616 309.614 193.616 309.186C193.616 308.702 193.435 308.288 193.074 307.943C192.716 307.595 192.229 307.421 191.612 307.421H189.34V310.683ZM189.34 306.223H191.398C191.915 306.223 192.351 306.077 192.706 305.786C193.061 305.494 193.238 305.103 193.238 304.612C193.238 304.188 193.09 303.835 192.795 303.553C192.5 303.268 192.048 303.126 191.438 303.126H189.34V306.223Z" fill="white"/>
<path opacity="0.75" d="M202.259 244V242.568L206.689 237.979C207.158 237.48 207.548 237.043 207.859 236.668C208.17 236.289 208.402 235.929 208.555 235.588C208.709 235.247 208.786 234.885 208.786 234.501C208.786 233.849 208.562 233.334 208.114 232.955C207.667 232.571 207.111 232.379 206.446 232.379C205.739 232.379 205.174 232.592 204.752 233.018C204.335 233.44 204.128 234.003 204.132 234.706H202.246C202.246 233.909 202.43 233.212 202.796 232.616C203.163 232.019 203.665 231.557 204.305 231.229C204.944 230.896 205.67 230.73 206.484 230.73C207.307 230.73 208.031 230.894 208.658 231.222C209.288 231.546 209.781 231.989 210.134 232.552C210.488 233.11 210.665 233.741 210.665 234.444C210.665 234.93 210.573 235.405 210.39 235.869C210.211 236.334 209.898 236.852 209.45 237.423C209.007 237.989 208.385 238.678 207.584 239.487L204.982 242.21V242.306H210.876V244H202.259ZM217.664 244.179C216.863 244.179 216.143 244.026 215.504 243.719C214.869 243.408 214.362 242.982 213.983 242.44C213.603 241.899 213.401 241.281 213.375 240.587H215.293C215.344 241.149 215.593 241.612 216.041 241.974C216.492 242.336 217.034 242.517 217.664 242.517C218.167 242.517 218.612 242.402 219 242.172C219.392 241.938 219.699 241.616 219.921 241.207C220.147 240.798 220.259 240.331 220.259 239.807C220.259 239.274 220.144 238.801 219.914 238.388C219.684 237.97 219.367 237.642 218.962 237.403C218.561 237.161 218.101 237.037 217.581 237.033C217.185 237.033 216.786 237.101 216.386 237.237C215.985 237.374 215.661 237.553 215.414 237.774L213.605 237.506L214.34 230.909H221.538V232.603H215.983L215.568 236.266H215.644C215.9 236.014 216.239 235.808 216.661 235.646C217.087 235.479 217.543 235.396 218.029 235.396C218.826 235.396 219.535 235.586 220.157 235.965C220.784 236.34 221.276 236.858 221.634 237.518C221.996 238.175 222.175 238.925 222.171 239.768C222.175 240.616 221.983 241.373 221.595 242.038C221.212 242.702 220.679 243.227 219.997 243.61C219.32 243.989 218.542 244.179 217.664 244.179ZM224.276 241.443V239.845L229.933 230.909H232.368V239.768H234.1V241.443H232.368V244H230.482V241.443H224.276ZM230.495 239.768V233.261H230.393L226.347 239.666V239.768H230.495ZM240.796 244.179C239.88 244.179 239.07 244.021 238.367 243.706C237.668 243.386 237.121 242.952 236.724 242.402C236.328 241.848 236.132 241.217 236.136 240.51C236.132 239.96 236.245 239.453 236.475 238.989C236.709 238.52 237.027 238.128 237.427 237.812C237.828 237.497 238.275 237.297 238.77 237.212V237.135C238.122 236.982 237.6 236.634 237.204 236.093C236.812 235.548 236.618 234.923 236.622 234.22C236.618 233.551 236.795 232.955 237.153 232.43C237.515 231.906 238.011 231.493 238.642 231.19C239.273 230.884 239.991 230.73 240.796 230.73C241.597 230.73 242.311 230.884 242.937 231.19C243.564 231.493 244.058 231.906 244.42 232.43C244.783 232.955 244.966 233.551 244.97 234.22C244.966 234.928 244.766 235.552 244.369 236.093C243.973 236.634 243.457 236.982 242.822 237.135V237.212C243.312 237.297 243.756 237.497 244.152 237.812C244.548 238.128 244.864 238.52 245.098 238.989C245.332 239.453 245.452 239.96 245.456 240.51C245.452 241.217 245.249 241.848 244.849 242.402C244.452 242.952 243.905 243.386 243.206 243.706C242.507 244.021 241.704 244.179 240.796 244.179ZM240.796 242.562C241.606 242.562 242.249 242.364 242.726 241.967C243.208 241.567 243.451 241.038 243.455 240.382C243.451 239.7 243.197 239.142 242.694 238.707C242.192 238.268 241.559 238.049 240.796 238.049C240.025 238.049 239.388 238.268 238.885 238.707C238.382 239.142 238.133 239.7 238.137 240.382C238.133 241.038 238.369 241.567 238.846 241.967C239.328 242.364 239.978 242.562 240.796 242.562ZM240.796 236.47C241.448 236.47 241.985 236.278 242.407 235.895C242.829 235.511 243.042 235.009 243.046 234.386C243.042 233.773 242.831 233.281 242.413 232.91C242 232.535 241.461 232.347 240.796 232.347C240.118 232.347 239.573 232.535 239.16 232.91C238.746 233.281 238.542 233.773 238.546 234.386C238.542 235.009 238.751 235.511 239.172 235.895C239.594 236.278 240.136 236.47 240.796 236.47ZM257.016 244H252.778V230.909H257.151C258.438 230.909 259.539 231.171 260.455 231.695C261.376 232.215 262.081 232.963 262.571 233.939C263.065 234.911 263.313 236.076 263.313 237.435C263.313 238.799 263.065 239.971 262.571 240.951C262.077 241.931 261.359 242.685 260.417 243.214C259.479 243.738 258.346 244 257.016 244ZM254.754 242.274H256.908C258.399 242.274 259.516 241.857 260.257 241.021C260.999 240.182 261.369 238.987 261.369 237.435C261.369 235.893 261.003 234.708 260.27 233.881C259.541 233.05 258.461 232.635 257.029 232.635H254.754V242.274ZM269.796 244.198C268.875 244.198 268.072 243.987 267.386 243.565C266.7 243.143 266.167 242.553 265.788 241.795C265.409 241.032 265.219 240.146 265.219 239.136C265.219 238.117 265.409 237.227 265.788 236.464C266.167 235.701 266.7 235.109 267.386 234.687C268.072 234.265 268.875 234.054 269.796 234.054C270.721 234.054 271.524 234.265 272.206 234.687C272.892 235.109 273.424 235.701 273.804 236.464C274.183 237.227 274.373 238.117 274.373 239.136C274.373 240.146 274.183 241.032 273.804 241.795C273.424 242.553 272.892 243.143 272.206 243.565C271.524 243.987 270.721 244.198 269.796 244.198ZM269.802 242.594C270.403 242.594 270.897 242.436 271.285 242.121C271.677 241.805 271.967 241.386 272.155 240.862C272.346 240.333 272.442 239.756 272.442 239.129C272.442 238.503 272.346 237.925 272.155 237.397C271.967 236.869 271.677 236.447 271.285 236.131C270.897 235.812 270.403 235.652 269.802 235.652C269.201 235.652 268.705 235.812 268.313 236.131C267.921 236.447 267.629 236.869 267.437 237.397C267.245 237.925 267.15 238.503 267.15 239.129C267.15 239.756 267.245 240.333 267.437 240.862C267.629 241.386 267.921 241.805 268.313 242.121C268.705 242.436 269.201 242.594 269.802 242.594ZM280.687 244.198C279.736 244.198 278.918 243.983 278.232 243.553C277.55 243.118 277.026 242.519 276.66 241.756C276.293 240.994 276.11 240.12 276.11 239.136C276.11 238.134 276.297 237.252 276.672 236.489C277.047 235.727 277.576 235.13 278.258 234.7C278.944 234.269 279.747 234.054 280.667 234.054C281.413 234.054 282.078 234.192 282.662 234.469C283.246 234.742 283.716 235.126 284.074 235.62C284.437 236.114 284.652 236.692 284.72 237.352H282.86C282.758 236.892 282.523 236.496 282.157 236.163C281.795 235.831 281.309 235.665 280.699 235.665C279.903 235.665 279.259 235.974 278.769 236.592C278.283 237.205 278.04 238.038 278.04 239.091C278.04 240.161 278.281 241.011 278.763 241.641C279.244 242.268 279.89 242.581 280.699 242.581C281.245 242.581 281.711 242.432 282.099 242.134C282.487 241.835 282.741 241.422 282.86 240.893H284.72C284.652 241.528 284.445 242.095 284.1 242.594C283.755 243.092 283.292 243.484 282.713 243.77C282.138 244.055 281.462 244.198 280.687 244.198ZM293.028 239.928V234.182H294.946V244H293.067V242.3H292.964C292.739 242.824 292.376 243.261 291.878 243.61C291.383 243.955 290.768 244.128 290.03 244.128C289.089 244.128 288.315 243.817 287.71 243.195C287.109 242.568 286.809 241.646 286.809 240.427V234.182H288.72V240.197C288.72 240.866 288.905 241.398 289.276 241.795C289.647 242.191 290.128 242.389 290.721 242.389C291.079 242.389 291.435 242.3 291.788 242.121C292.146 241.942 292.442 241.671 292.677 241.309C292.915 240.942 293.033 240.482 293.028 239.928ZM297.559 244V234.182H299.393V235.78H299.515C299.719 235.239 300.054 234.817 300.518 234.514C300.983 234.207 301.539 234.054 302.187 234.054C302.843 234.054 303.393 234.207 303.836 234.514C304.283 234.821 304.614 235.243 304.827 235.78H304.929C305.168 235.256 305.54 234.838 306.048 234.527C306.559 234.212 307.168 234.054 307.876 234.054C308.766 234.054 309.493 234.335 310.055 234.898C310.622 235.456 310.906 236.295 310.906 237.416V244H308.994V237.595C308.994 236.93 308.813 236.449 308.451 236.151C308.093 235.852 307.661 235.703 307.153 235.703C306.531 235.703 306.048 235.895 305.702 236.278C305.357 236.662 305.185 237.15 305.185 237.742V244H303.28V237.474C303.28 236.941 303.114 236.513 302.781 236.189C302.449 235.865 302.016 235.703 301.484 235.703C300.942 235.703 300.472 235.912 300.071 236.33C299.67 236.747 299.47 237.286 299.47 237.947V244H297.559ZM317.744 244.198C316.781 244.198 315.95 243.989 315.251 243.572C314.552 243.154 314.013 242.568 313.634 241.814C313.259 241.055 313.071 240.169 313.071 239.155C313.071 238.149 313.259 237.263 313.634 236.496C314.013 235.729 314.541 235.13 315.219 234.7C315.901 234.269 316.698 234.054 317.609 234.054C318.351 234.054 319.052 234.22 319.712 234.553C320.377 234.881 320.916 235.407 321.33 236.131C321.747 236.852 321.956 237.804 321.956 238.989V239.666H314.976C315.001 240.612 315.268 241.341 315.775 241.852C316.282 242.364 316.945 242.619 317.763 242.619C318.308 242.619 318.779 242.502 319.175 242.268C319.572 242.033 319.855 241.684 320.026 241.219L321.835 241.545C321.617 242.342 321.149 242.984 320.428 243.469C319.708 243.955 318.813 244.198 317.744 244.198ZM314.982 238.234H320.083C320.079 237.484 319.853 236.864 319.406 236.374C318.958 235.88 318.364 235.633 317.622 235.633C317.107 235.633 316.655 235.754 316.267 235.997C315.884 236.236 315.579 236.553 315.353 236.95C315.131 237.342 315.008 237.77 314.982 238.234ZM326.033 238.17V244H324.122V234.182H325.956V235.78H326.078C326.303 235.26 326.657 234.842 327.139 234.527C327.624 234.212 328.236 234.054 328.973 234.054C329.979 234.054 330.786 234.367 331.396 234.994C332.009 235.62 332.316 236.54 332.316 237.755V244H330.405V237.985C330.405 237.273 330.22 236.717 329.849 236.317C329.478 235.912 328.969 235.71 328.321 235.71C327.656 235.71 327.109 235.925 326.678 236.355C326.248 236.781 326.033 237.386 326.033 238.17ZM339.508 234.182V235.716H337.494V241.117C337.494 241.671 337.611 242.029 337.846 242.191C338.084 242.349 338.359 242.428 338.67 242.428C338.824 242.428 338.958 242.417 339.073 242.396C339.188 242.374 339.277 242.357 339.341 242.344L339.686 243.923C339.576 243.966 339.416 244.009 339.207 244.051C339.003 244.098 338.749 244.124 338.446 244.128C337.944 244.136 337.473 244.047 337.034 243.859C336.599 243.672 336.248 243.382 335.979 242.99C335.715 242.598 335.583 242.106 335.583 241.513V235.716H334.145V234.182H335.583V231.83H337.494V234.182H339.508ZM348.866 236.579L347.133 236.886C347.023 236.558 346.816 236.257 346.513 235.984C346.215 235.707 345.768 235.569 345.171 235.569C344.63 235.569 344.176 235.69 343.81 235.933C343.447 236.172 343.268 236.481 343.273 236.86C343.268 237.192 343.388 237.459 343.631 237.659C343.878 237.855 344.272 238.017 344.813 238.145L346.373 238.503C348.163 238.916 349.057 239.803 349.057 241.162C349.057 241.754 348.887 242.278 348.546 242.734C348.209 243.19 347.739 243.548 347.133 243.808C346.533 244.068 345.836 244.198 345.043 244.198C343.94 244.198 343.043 243.964 342.352 243.495C341.662 243.022 341.236 242.351 341.074 241.482L342.921 241.2C343.151 242.172 343.854 242.658 345.03 242.658C345.657 242.658 346.158 242.528 346.533 242.268C346.908 242.004 347.095 241.682 347.095 241.303C347.095 240.676 346.633 240.261 345.708 240.056L344.046 239.692C343.126 239.487 342.448 239.155 342.013 238.695C341.579 238.234 341.361 237.657 341.361 236.962C341.361 236.383 341.523 235.876 341.847 235.441C342.171 235.002 342.619 234.661 343.19 234.418C343.761 234.175 344.415 234.054 345.152 234.054C346.213 234.054 347.048 234.284 347.658 234.744C348.267 235.205 348.67 235.816 348.866 236.579Z" fill="white"/>
<path d="M223.557 195.875H218.58C218.39 194.595 217.845 193.591 216.943 192.864C216.042 192.129 214.917 191.761 213.568 191.761C211.765 191.761 210.318 192.424 209.227 193.75C208.144 195.068 207.602 196.939 207.602 199.364C207.602 201.848 208.148 203.739 209.239 205.034C210.337 206.322 211.769 206.966 213.534 206.966C214.845 206.966 215.955 206.625 216.864 205.943C217.773 205.254 218.345 204.288 218.58 203.045L223.557 203.068C223.383 204.492 222.875 205.833 222.034 207.091C221.193 208.348 220.049 209.367 218.602 210.148C217.163 210.928 215.447 211.318 213.455 211.318C211.379 211.318 209.523 210.848 207.886 209.909C206.258 208.97 204.97 207.61 204.023 205.83C203.083 204.049 202.614 201.894 202.614 199.364C202.614 196.826 203.091 194.667 204.045 192.886C205 191.106 206.295 189.75 207.932 188.818C209.568 187.879 211.409 187.409 213.455 187.409C215.25 187.409 216.867 187.742 218.307 188.409C219.754 189.068 220.936 190.03 221.852 191.295C222.777 192.553 223.345 194.08 223.557 195.875ZM231.915 187.727V211H227.074V187.727H231.915ZM243.759 211.341C241.994 211.341 240.468 210.966 239.18 210.216C237.9 209.458 236.911 208.405 236.214 207.057C235.517 205.701 235.169 204.129 235.169 202.341C235.169 200.538 235.517 198.962 236.214 197.614C236.911 196.258 237.9 195.205 239.18 194.455C240.468 193.697 241.994 193.318 243.759 193.318C245.525 193.318 247.047 193.697 248.328 194.455C249.615 195.205 250.608 196.258 251.305 197.614C252.002 198.962 252.35 200.538 252.35 202.341C252.35 204.129 252.002 205.701 251.305 207.057C250.608 208.405 249.615 209.458 248.328 210.216C247.047 210.966 245.525 211.341 243.759 211.341ZM243.782 207.591C244.979 207.591 245.884 207.091 246.498 206.091C247.119 205.091 247.43 203.83 247.43 202.307C247.43 200.784 247.119 199.523 246.498 198.523C245.884 197.515 244.979 197.011 243.782 197.011C242.562 197.011 241.642 197.515 241.021 198.523C240.4 199.523 240.089 200.784 240.089 202.307C240.089 203.83 240.4 205.091 241.021 206.091C241.642 207.091 242.562 207.591 243.782 207.591ZM266.771 203.568V193.545H271.612V211H266.964V207.83H266.783C266.389 208.852 265.733 209.674 264.817 210.295C263.908 210.917 262.798 211.227 261.487 211.227C259.73 211.227 258.305 210.644 257.214 209.477C256.131 208.303 255.586 206.697 255.578 204.659V193.545H260.419V203.795C260.427 204.826 260.703 205.64 261.249 206.239C261.794 206.837 262.525 207.136 263.442 207.136C264.313 207.136 265.086 206.833 265.76 206.227C266.442 205.621 266.779 204.735 266.771 203.568ZM281.996 211.284C280.67 211.284 279.473 210.943 278.405 210.261C277.337 209.572 276.489 208.561 275.86 207.227C275.231 205.886 274.917 204.242 274.917 202.295C274.917 200.295 275.239 198.633 275.882 197.307C276.534 195.973 277.394 194.977 278.462 194.318C279.538 193.652 280.712 193.318 281.985 193.318C282.962 193.318 283.776 193.485 284.428 193.818C285.087 194.144 285.617 194.549 286.019 195.034C286.428 195.519 286.739 196 286.951 196.477H287.098V187.727H291.928V211H287.155V208.205H286.951C286.731 208.689 286.413 209.17 285.996 209.648C285.579 210.117 285.042 210.508 284.382 210.818C283.731 211.129 282.936 211.284 281.996 211.284ZM283.53 207.432C284.697 207.432 285.598 206.962 286.235 206.023C286.879 205.076 287.201 203.826 287.201 202.273C287.201 200.712 286.883 199.473 286.246 198.557C285.61 197.633 284.704 197.17 283.53 197.17C282.333 197.17 281.42 197.644 280.792 198.591C280.17 199.53 279.86 200.758 279.86 202.273C279.86 203.795 280.174 205.038 280.803 206C281.432 206.955 282.341 207.432 283.53 207.432ZM303.943 211.341C302.155 211.341 300.613 210.977 299.318 210.25C298.022 209.515 297.026 208.477 296.329 207.136C295.632 205.788 295.284 204.193 295.284 202.352C295.284 200.557 295.632 198.981 296.329 197.625C297.026 196.269 298.007 195.212 299.272 194.455C300.545 193.697 302.037 193.318 303.749 193.318C305.287 193.318 306.674 193.644 307.909 194.295C309.151 194.947 310.136 195.932 310.863 197.25C311.59 198.561 311.954 200.205 311.954 202.182V203.511H300.068V203.523C300.068 204.826 300.424 205.852 301.136 206.602C301.848 207.352 302.81 207.727 304.022 207.727C304.833 207.727 305.534 207.557 306.124 207.216C306.715 206.875 307.132 206.371 307.374 205.705L311.852 206C311.511 207.621 310.647 208.917 309.261 209.886C307.874 210.856 306.102 211.341 303.943 211.341ZM300.068 200.511H307.397C307.39 199.473 307.056 198.617 306.397 197.943C305.738 197.269 304.882 196.932 303.829 196.932C302.753 196.932 301.871 197.28 301.181 197.977C300.492 198.674 300.121 199.519 300.068 200.511ZM335.395 194.42C335.304 193.504 334.91 192.792 334.213 192.284C333.524 191.777 332.592 191.523 331.418 191.523C330.213 191.523 329.289 191.769 328.645 192.261C328.001 192.754 327.679 193.375 327.679 194.125C327.664 194.958 328.02 195.591 328.747 196.023C329.482 196.447 330.354 196.777 331.361 197.011L333.452 197.511C334.801 197.814 335.997 198.254 337.043 198.83C338.096 199.405 338.922 200.148 339.52 201.057C340.126 201.958 340.429 203.057 340.429 204.352C340.422 206.481 339.622 208.178 338.032 209.443C336.448 210.701 334.236 211.33 331.395 211.33C328.569 211.33 326.316 210.686 324.634 209.398C322.952 208.11 322.081 206.208 322.02 203.693H326.782C326.865 204.86 327.323 205.739 328.157 206.33C328.997 206.913 330.058 207.205 331.338 207.205C332.588 207.205 333.585 206.939 334.327 206.409C335.077 205.879 335.456 205.189 335.463 204.341C335.456 203.553 335.111 202.947 334.429 202.523C333.747 202.098 332.774 201.735 331.509 201.432L328.975 200.795C327.013 200.326 325.463 199.58 324.327 198.557C323.191 197.534 322.626 196.167 322.634 194.455C322.626 193.045 323.001 191.814 323.759 190.761C324.524 189.701 325.573 188.879 326.907 188.295C328.24 187.705 329.755 187.409 331.452 187.409C333.179 187.409 334.687 187.705 335.975 188.295C337.27 188.886 338.278 189.708 338.997 190.761C339.717 191.814 340.088 193.034 340.111 194.42H335.395ZM353.012 193.545V197.182H349.728V205.636C349.728 206.303 349.88 206.754 350.183 206.989C350.486 207.223 350.88 207.341 351.364 207.341C351.592 207.341 351.819 207.322 352.046 207.284C352.274 207.239 352.448 207.205 352.569 207.182L353.33 210.784C353.088 210.86 352.747 210.947 352.308 211.045C351.868 211.152 351.334 211.216 350.705 211.239C348.948 211.314 347.535 210.936 346.467 210.102C345.406 209.261 344.88 207.985 344.887 206.273V197.182H342.501V193.545H344.887V189.364H349.728V193.545H353.012ZM363.944 211.341C362.179 211.341 360.653 210.966 359.365 210.216C358.085 209.458 357.096 208.405 356.399 207.057C355.702 205.701 355.354 204.129 355.354 202.341C355.354 200.538 355.702 198.962 356.399 197.614C357.096 196.258 358.085 195.205 359.365 194.455C360.653 193.697 362.179 193.318 363.944 193.318C365.71 193.318 367.232 193.697 368.513 194.455C369.8 195.205 370.793 196.258 371.49 197.614C372.187 198.962 372.535 200.538 372.535 202.341C372.535 204.129 372.187 205.701 371.49 207.057C370.793 208.405 369.8 209.458 368.513 210.216C367.232 210.966 365.71 211.341 363.944 211.341ZM363.967 207.591C365.164 207.591 366.069 207.091 366.683 206.091C367.304 205.091 367.615 203.83 367.615 202.307C367.615 200.784 367.304 199.523 366.683 198.523C366.069 197.515 365.164 197.011 363.967 197.011C362.747 197.011 361.827 197.515 361.206 198.523C360.585 199.523 360.274 200.784 360.274 202.307C360.274 203.83 360.585 205.091 361.206 206.091C361.827 207.091 362.747 207.591 363.967 207.591ZM375.763 211V193.545H380.456V196.591H380.638C380.956 195.508 381.487 194.689 382.229 194.136C382.979 193.576 383.846 193.295 384.831 193.295C385.301 193.295 385.737 193.352 386.138 193.466C386.54 193.58 386.899 193.735 387.218 193.932L385.763 197.932C385.536 197.818 385.286 197.723 385.013 197.648C384.748 197.564 384.449 197.523 384.115 197.523C383.138 197.523 382.309 197.856 381.627 198.523C380.952 199.189 380.612 200.057 380.604 201.125V211H375.763ZM394.039 211.33C392.372 211.33 390.99 210.894 389.891 210.023C388.793 209.152 388.244 207.852 388.244 206.125C388.244 204.822 388.55 203.799 389.164 203.057C389.778 202.314 390.581 201.773 391.573 201.432C392.573 201.083 393.649 200.856 394.8 200.75C396.316 200.598 397.399 200.439 398.05 200.273C398.702 200.106 399.028 199.742 399.028 199.182V199.114C399.028 198.394 398.8 197.837 398.346 197.443C397.899 197.049 397.263 196.852 396.437 196.852C395.566 196.852 394.872 197.042 394.357 197.42C393.842 197.799 393.501 198.28 393.335 198.864L388.857 198.5C389.191 196.909 390.016 195.648 391.335 194.716C392.66 193.784 394.369 193.318 396.46 193.318C397.755 193.318 398.967 193.523 400.096 193.932C401.225 194.341 402.134 194.981 402.823 195.852C403.52 196.716 403.869 197.841 403.869 199.227V211H399.278V208.58H399.141C398.717 209.39 398.081 210.053 397.232 210.568C396.391 211.076 395.327 211.33 394.039 211.33ZM395.425 207.989C396.486 207.989 397.357 207.682 398.039 207.068C398.721 206.447 399.062 205.678 399.062 204.761V202.909C398.872 203.038 398.577 203.152 398.175 203.25C397.782 203.348 397.357 203.436 396.903 203.511C396.456 203.58 396.054 203.64 395.698 203.693C394.85 203.814 394.164 204.053 393.641 204.409C393.126 204.765 392.869 205.284 392.869 205.966C392.869 206.633 393.107 207.136 393.585 207.477C394.069 207.818 394.683 207.989 395.425 207.989ZM415.568 217.795C413.219 217.795 411.375 217.333 410.034 216.409C408.693 215.485 407.879 214.364 407.591 213.045L412.068 212.443C412.265 212.913 412.648 213.341 413.216 213.727C413.791 214.121 414.613 214.318 415.682 214.318C416.735 214.318 417.602 214.068 418.284 213.568C418.973 213.068 419.318 212.246 419.318 211.102V207.909H419.113C418.795 208.629 418.235 209.284 417.432 209.875C416.629 210.458 415.53 210.75 414.136 210.75C412.826 210.75 411.632 210.443 410.557 209.83C409.488 209.216 408.636 208.28 408 207.023C407.371 205.765 407.057 204.17 407.057 202.239C407.057 200.254 407.379 198.602 408.023 197.284C408.674 195.966 409.534 194.977 410.602 194.318C411.678 193.652 412.852 193.318 414.125 193.318C415.102 193.318 415.92 193.485 416.579 193.818C417.238 194.144 417.773 194.549 418.182 195.034C418.591 195.519 418.901 196 419.113 196.477H419.295V193.545H424.102V211.17C424.102 212.617 423.735 213.833 423 214.818C422.273 215.803 421.269 216.545 419.988 217.045C418.708 217.545 417.235 217.795 415.568 217.795ZM415.67 207.114C416.837 207.114 417.738 206.682 418.375 205.818C419.019 204.955 419.341 203.754 419.341 202.216C419.341 200.686 419.023 199.462 418.386 198.545C417.75 197.629 416.844 197.17 415.67 197.17C414.473 197.17 413.56 197.64 412.932 198.58C412.31 199.519 412 200.731 412 202.216C412 203.723 412.314 204.917 412.943 205.795C413.572 206.674 414.481 207.114 415.67 207.114ZM435.989 211.341C434.201 211.341 432.659 210.977 431.364 210.25C430.068 209.515 429.072 208.477 428.375 207.136C427.678 205.788 427.33 204.193 427.33 202.352C427.33 200.557 427.678 198.981 428.375 197.625C429.072 196.269 430.053 195.212 431.318 194.455C432.591 193.697 434.084 193.318 435.796 193.318C437.334 193.318 438.72 193.644 439.955 194.295C441.197 194.947 442.182 195.932 442.909 197.25C443.637 198.561 444 200.205 444 202.182V203.511H432.114V203.523C432.114 204.826 432.47 205.852 433.182 206.602C433.894 207.352 434.856 207.727 436.068 207.727C436.879 207.727 437.58 207.557 438.171 207.216C438.762 206.875 439.178 206.371 439.421 205.705L443.898 206C443.557 207.621 442.693 208.917 441.307 209.886C439.921 210.856 438.148 211.341 435.989 211.341ZM432.114 200.511H439.443C439.436 199.473 439.102 198.617 438.443 197.943C437.784 197.269 436.928 196.932 435.875 196.932C434.799 196.932 433.917 197.28 433.227 197.977C432.538 198.674 432.167 199.519 432.114 200.511Z" fill="white"/>
<g clip-path="url(#clip0)">
<path d="M131.635 189.833L111.078 203.17L107.28 197.316C106.021 195.376 106.573 192.782 108.513 191.524L122.045 182.745C123.985 181.486 126.578 182.038 127.837 183.979L131.635 189.833Z" fill="url(#paint5_linear)"/>
<path d="M126.353 193.26L105.796 206.597L101.998 200.743C100.739 198.803 101.291 196.209 103.231 194.951L116.762 186.172C118.703 184.913 121.296 185.465 122.554 187.406L126.353 193.26Z" fill="url(#paint6_linear)"/>
<path d="M119.007 194.19L116.96 191.035C115.701 189.095 113.108 188.543 111.168 189.801L97.6366 198.58C95.6965 199.839 95.1441 202.432 96.4028 204.372L121.012 242.303C122.805 245.067 126.499 245.854 129.263 244.061L167.6 219.189C170.364 217.395 171.151 213.701 169.357 210.937L151.034 182.695C149.241 179.931 145.547 179.144 142.783 180.937L121.527 194.727C120.683 195.275 119.554 195.035 119.007 194.19Z" fill="url(#paint7_linear)"/>
<path d="M137.799 193.953L136.594 194.735C135.902 195.184 134.979 194.987 134.53 194.296L133.748 193.09C133.3 192.399 133.496 191.475 134.188 191.027L135.393 190.245C136.084 189.796 137.008 189.993 137.457 190.684L138.239 191.89C138.687 192.581 138.49 193.505 137.799 193.953Z" fill="#DDD0FF"/>
<path d="M142.527 190.886L141.322 191.668C140.631 192.116 139.707 191.919 139.258 191.228L138.476 190.023C138.028 189.331 138.225 188.408 138.916 187.959L140.121 187.177C140.813 186.729 141.736 186.925 142.185 187.617L142.967 188.822C143.415 189.513 143.219 190.437 142.527 190.886Z" fill="#DDD0FF"/>
<path d="M147.256 187.818L146.051 188.6C145.359 189.048 144.435 188.851 143.987 188.16L143.205 186.955C142.757 186.263 142.953 185.34 143.645 184.891L144.85 184.109C145.541 183.661 146.465 183.857 146.913 184.549L147.695 185.754C148.144 186.445 147.947 187.369 147.256 187.818Z" fill="#DDD0FF"/>
<path d="M167.6 219.189C170.364 217.396 171.151 213.701 169.358 210.937L157.533 192.712L146.948 190.457C145.351 190.004 143.574 190.215 142.072 191.189L136.202 194.998L124.914 192.531L121.527 194.727L99.4418 209.056L120.978 242.25C122.79 245.043 126.523 245.839 129.316 244.026L167.6 219.189L167.6 219.189Z" fill="url(#paint8_linear)"/>
<path d="M117.421 236.769L121.012 242.303C122.805 245.067 126.499 245.854 129.263 244.06L167.6 219.188C170.364 217.395 171.151 213.701 169.357 210.937L165.767 205.403L117.421 236.769Z" fill="url(#paint9_linear)"/>
<path d="M130.924 200.085L110.367 213.422L106.569 207.568C105.31 205.628 105.862 203.034 107.802 201.776L121.334 192.997C123.274 191.738 125.867 192.291 127.126 194.231L130.924 200.085L130.924 200.085Z" fill="url(#paint10_linear)"/>
<path d="M125.642 203.512L105.085 216.849L101.286 210.995C100.028 209.055 100.58 206.461 102.52 205.203L116.051 196.424C117.992 195.165 120.585 195.718 121.843 197.658L125.642 203.512L125.642 203.512Z" fill="url(#paint11_linear)"/>
<path d="M118.296 204.442L116.249 201.287C114.99 199.347 112.397 198.795 110.457 200.054L96.9254 208.832C94.9853 210.091 94.4329 212.684 95.6916 214.624L120.301 252.555C122.094 255.319 125.788 256.106 128.552 254.313L166.888 229.441C169.652 227.648 170.439 223.953 168.646 221.189L150.323 192.947C148.53 190.183 144.835 189.396 142.071 191.189L120.816 204.979C119.972 205.527 118.843 205.287 118.296 204.442Z" fill="#59F7E5"/>
<path d="M137.088 204.205L135.882 204.987C135.191 205.436 134.267 205.239 133.819 204.548L133.037 203.343C132.588 202.651 132.785 201.727 133.476 201.279L134.682 200.497C135.373 200.048 136.297 200.245 136.745 200.937L137.527 202.142C137.976 202.833 137.779 203.757 137.088 204.205Z" fill="url(#paint12_linear)"/>
<path d="M141.816 201.138L140.611 201.92C139.92 202.368 138.996 202.171 138.547 201.48L137.765 200.275C137.317 199.584 137.514 198.66 138.205 198.211L139.41 197.429C140.101 196.981 141.025 197.178 141.474 197.869L142.256 199.074C142.704 199.765 142.507 200.689 141.816 201.138Z" fill="url(#paint13_linear)"/>
<path d="M146.545 198.07L145.339 198.852C144.648 199.3 143.724 199.103 143.276 198.412L142.494 197.207C142.045 196.516 142.242 195.592 142.933 195.143L144.139 194.361C144.83 193.913 145.754 194.11 146.202 194.801L146.984 196.006C147.433 196.697 147.236 197.621 146.545 198.07Z" fill="url(#paint14_linear)"/>
<path d="M166.888 229.441C169.652 227.648 170.439 223.953 168.646 221.189L156.822 202.964L146.237 200.709C144.64 200.256 142.863 200.467 141.36 201.442L135.491 205.25L124.202 202.783L120.816 204.98L98.7306 219.308L120.266 252.502C122.079 255.296 125.812 256.091 128.605 254.279L166.888 229.441Z" fill="#3CD8C6"/>
<path d="M116.71 247.021L120.3 252.555C122.094 255.319 125.788 256.106 128.552 254.313L166.888 229.44C169.652 227.647 170.439 223.953 168.646 221.189L165.056 215.655L116.71 247.021Z" fill="url(#paint15_linear)"/>
<path d="M130.213 210.338L109.656 223.675L105.858 217.82C104.599 215.88 105.152 213.287 107.092 212.028L120.623 203.249C122.563 201.99 125.156 202.543 126.415 204.483L130.213 210.338L130.213 210.338Z" fill="url(#paint16_linear)"/>
<path d="M124.931 213.765L104.374 227.102L100.576 221.247C99.317 219.307 99.8694 216.714 101.81 215.455L115.341 206.676C117.281 205.417 119.874 205.97 121.133 207.91L124.931 213.765L124.931 213.765Z" fill="url(#paint17_linear)"/>
<path d="M117.585 214.695L115.538 211.54C114.279 209.6 111.686 209.047 109.746 210.306L96.2147 219.085C94.2746 220.343 93.7222 222.937 94.9809 224.877L119.59 262.808C121.383 265.571 125.077 266.358 127.841 264.565L166.178 239.693C168.942 237.9 169.729 234.205 167.935 231.442L149.612 203.199C147.819 200.435 144.125 199.648 141.361 201.442L120.105 215.232C119.261 215.78 118.133 215.539 117.585 214.695Z" fill="url(#paint18_linear)"/>
<path d="M136.377 214.458L135.172 215.24C134.481 215.688 133.557 215.491 133.108 214.8L132.326 213.595C131.878 212.904 132.074 211.98 132.766 211.531L133.971 210.749C134.662 210.301 135.586 210.498 136.035 211.189L136.817 212.394C137.265 213.085 137.068 214.009 136.377 214.458Z" fill="url(#paint19_linear)"/>
<path d="M141.105 211.39L139.9 212.172C139.209 212.621 138.285 212.424 137.836 211.733L137.054 210.527C136.606 209.836 136.803 208.912 137.494 208.464L138.699 207.682C139.391 207.233 140.314 207.43 140.763 208.121L141.545 209.326C141.993 210.018 141.797 210.942 141.105 211.39Z" fill="url(#paint20_linear)"/>
<path d="M145.834 208.322L144.629 209.104C143.937 209.553 143.013 209.356 142.565 208.665L141.783 207.459C141.335 206.768 141.531 205.844 142.223 205.396L143.428 204.614C144.119 204.165 145.043 204.362 145.492 205.053L146.273 206.259C146.722 206.95 146.525 207.874 145.834 208.322Z" fill="url(#paint21_linear)"/>
<path d="M115.999 257.273L119.59 262.807C121.383 265.571 125.077 266.358 127.841 264.565L166.178 239.693C168.942 237.9 169.729 234.205 167.935 231.441L164.345 225.907L115.999 257.273Z" fill="url(#paint22_linear)"/>
</g>
<defs>
<filter id="filter0_d" x="37" y="136" width="474" height="328" filterUnits="userSpaceOnUse" color-interpolation-filters="sRGB">
<feFlood flood-opacity="0" result="BackgroundImageFix"/>
<feColorMatrix in="SourceAlpha" type="matrix" values="0 0 0 0 0 0 0 0 0 0 0 0 0 0 0 0 0 0 127 0"/>
<feMorphology radius="50" operator="erode" in="SourceAlpha" result="effect1_dropShadow"/>
<feOffset dy="50"/>
<feGaussianBlur stdDeviation="30"/>
<feColorMatrix type="matrix" values="0 0 0 0 0.476326 0 0 0 0 0.319514 0 0 0 0 0.891667 0 0 0 0.5 0"/>
<feBlend mode="normal" in2="BackgroundImageFix" result="effect1_dropShadow"/>
<feBlend mode="normal" in="SourceGraphic" in2="effect1_dropShadow" result="shape"/>
</filter>
<filter id="filter1_d" x="304" y="307" width="80" height="80" filterUnits="userSpaceOnUse" color-interpolation-filters="sRGB">
<feFlood flood-opacity="0" result="BackgroundImageFix"/>
<feColorMatrix in="SourceAlpha" type="matrix" values="0 0 0 0 0 0 0 0 0 0 0 0 0 0 0 0 0 0 127 0"/>
<feOffset dx="-6" dy="8"/>
<feGaussianBlur stdDeviation="10"/>
<feColorMatrix type="matrix" values="0 0 0 0 0 0 0 0 0 0 0 0 0 0 0 0 0 0 0.1 0"/>
<feBlend mode="normal" in2="BackgroundImageFix" result="effect1_dropShadow"/>
<feBlend mode="normal" in="SourceGraphic" in2="effect1_dropShadow" result="shape"/>
</filter>
<linearGradient id="paint0_linear" x1="293.454" y1="37.3253" x2="293.454" y2="500.675" gradientUnits="userSpaceOnUse">
<stop stop-color="#D5C4FF"/>
<stop offset="1" stop-color="#DBCCFF"/>
</linearGradient>
<linearGradient id="paint1_linear" x1="290.061" y1="109.133" x2="293.455" y2="429.885" gradientUnits="userSpaceOnUse">
<stop stop-color="#D5C6FF"/>
<stop offset="1" stop-color="#E0D2FF"/>
</linearGradient>
<linearGradient id="paint2_linear" x1="193" y1="136" x2="501" y2="404" gradientUnits="userSpaceOnUse">
<stop stop-color="#9E80FB"/>
<stop offset="1" stop-color="#8152E9"/>
</linearGradient>
<linearGradient id="paint3_linear" x1="218" y1="327" x2="218" y2="351" gradientUnits="userSpaceOnUse">
<stop stop-color="#FFE675"/>
<stop offset="0.491829" stop-color="#FFD307"/>
<stop offset="1" stop-color="#FFDA2F"/>
</linearGradient>
<linearGradient id="paint4_linear" x1="350" y1="326" x2="350" y2="352" gradientUnits="userSpaceOnUse">
<stop stop-color="#FFEEA0"/>
<stop offset="0.533766" stop-color="#FFD200"/>
<stop offset="1" stop-color="#FFE04F"/>
</linearGradient>
<linearGradient id="paint5_linear" x1="116.545" y1="189.086" x2="121.36" y2="196.506" gradientUnits="userSpaceOnUse">
<stop stop-color="#BDA8FF"/>
<stop offset="1" stop-color="#5C3ABA"/>
</linearGradient>
<linearGradient id="paint6_linear" x1="111.263" y1="192.513" x2="116.078" y2="199.933" gradientUnits="userSpaceOnUse">
<stop stop-color="#BEA8FF"/>
<stop offset="1" stop-color="#7E61D3"/>
</linearGradient>
<linearGradient id="paint7_linear" x1="111.858" y1="192.772" x2="177.252" y2="246.156" gradientUnits="userSpaceOnUse">
<stop stop-color="#CEBCFF"/>
<stop offset="1" stop-color="#9775F7"/>
</linearGradient>
<linearGradient id="paint8_linear" x1="135.248" y1="213.069" x2="123.053" y2="154.644" gradientUnits="userSpaceOnUse">
<stop stop-color="#0B799D" stop-opacity="0"/>
<stop offset="0.3645" stop-color="#096380" stop-opacity="0.365"/>
<stop offset="0.76" stop-color="#084F67" stop-opacity="0.76"/>
<stop offset="1" stop-color="#07485E"/>
</linearGradient>
<linearGradient id="paint9_linear" x1="144.464" y1="225.509" x2="150.797" y2="235.271" gradientUnits="userSpaceOnUse">
<stop stop-color="#0B799D" stop-opacity="0"/>
<stop offset="0.3645" stop-color="#096380" stop-opacity="0.365"/>
<stop offset="0.76" stop-color="#084F67" stop-opacity="0.76"/>
<stop offset="1" stop-color="#07485E"/>
</linearGradient>
<linearGradient id="paint10_linear" x1="115.834" y1="199.338" x2="120.649" y2="206.759" gradientUnits="userSpaceOnUse">
<stop stop-color="#0095FF"/>
<stop offset="1" stop-color="#0B799D"/>
</linearGradient>
<linearGradient id="paint11_linear" x1="110.552" y1="202.765" x2="115.366" y2="210.186" gradientUnits="userSpaceOnUse">
<stop stop-color="#48B2E3"/>
<stop offset="1" stop-color="#0095FF"/>
</linearGradient>
<linearGradient id="paint12_linear" x1="134.666" y1="202.695" x2="137.198" y2="202.887" gradientUnits="userSpaceOnUse">
<stop stop-color="#EDF5FF"/>
<stop offset="1" stop-color="#D5E8FE"/>
</linearGradient>
<linearGradient id="paint13_linear" x1="139.395" y1="199.628" x2="141.927" y2="199.82" gradientUnits="userSpaceOnUse">
<stop stop-color="#EDF5FF"/>
<stop offset="1" stop-color="#D5E8FE"/>
</linearGradient>
<linearGradient id="paint14_linear" x1="144.123" y1="196.56" x2="146.655" y2="196.752" gradientUnits="userSpaceOnUse">
<stop stop-color="#EDF5FF"/>
<stop offset="1" stop-color="#D5E8FE"/>
</linearGradient>
<linearGradient id="paint15_linear" x1="143.753" y1="235.761" x2="150.086" y2="245.523" gradientUnits="userSpaceOnUse">
<stop stop-color="#B5DBFF" stop-opacity="0"/>
<stop offset="0.1734" stop-color="#8FC5E9" stop-opacity="0.173"/>
<stop offset="0.4541" stop-color="#56A4C8" stop-opacity="0.454"/>
<stop offset="0.6955" stop-color="#2D8DB1" stop-opacity="0.696"/>
<stop offset="0.8853" stop-color="#147EA2" stop-opacity="0.885"/>
<stop offset="1" stop-color="#0B799D"/>
</linearGradient>
<linearGradient id="paint16_linear" x1="115.123" y1="209.59" x2="119.938" y2="217.011" gradientUnits="userSpaceOnUse">
<stop stop-color="#FF9100"/>
<stop offset="1" stop-color="#E63950"/>
</linearGradient>
<linearGradient id="paint17_linear" x1="109.841" y1="213.017" x2="114.656" y2="220.438" gradientUnits="userSpaceOnUse">
<stop stop-color="#FDBF00"/>
<stop offset="1" stop-color="#FF9100"/>
</linearGradient>
<linearGradient id="paint18_linear" x1="100.344" y1="225.706" x2="151.535" y2="236.611" gradientUnits="userSpaceOnUse">
<stop stop-color="#FFDA2D"/>
<stop offset="1" stop-color="#FDBF00"/>
</linearGradient>
<linearGradient id="paint19_linear" x1="133.956" y1="212.948" x2="136.488" y2="213.139" gradientUnits="userSpaceOnUse">
<stop stop-color="#FF637B"/>
<stop offset="1" stop-color="#E63950"/>
</linearGradient>
<linearGradient id="paint20_linear" x1="138.684" y1="209.88" x2="141.216" y2="210.072" gradientUnits="userSpaceOnUse">
<stop stop-color="#FF637B"/>
<stop offset="1" stop-color="#E63950"/>
</linearGradient>
<linearGradient id="paint21_linear" x1="143.413" y1="206.812" x2="145.944" y2="207.004" gradientUnits="userSpaceOnUse">
<stop stop-color="#FF637B"/>
<stop offset="1" stop-color="#E63950"/>
</linearGradient>
<linearGradient id="paint22_linear" x1="143.042" y1="246.014" x2="149.375" y2="255.775" gradientUnits="userSpaceOnUse">
<stop stop-color="#FF9100" stop-opacity="0"/>
<stop offset="1" stop-color="#FF9100"/>
</linearGradient>
<clipPath id="clip0">
<rect width="71.7948" height="71.7948" fill="white" transform="translate(83 208.076) rotate(-32.975)"/>
</clipPath>
</defs>
</svg>
